<?xml version="1.0" encoding="utf-8"?>
<!-- Generator: Adobe Illustrator 27.5.0, SVG Export Plug-In . SVG Version: 6.00 Build 0)  -->
<svg version="1.1" xmlns="http://www.w3.org/2000/svg" xmlns:xlink="http://www.w3.org/1999/xlink" x="0px" y="0px"
	 viewBox="0 0 500 500" style="enable-background:new 0 0 500 500;" xml:space="preserve">
<g id="BACKGROUND">
	<rect x="0.096" style="fill:#ffffff;" width="499.808" height="500"/>
</g>
<g id="OBJECTS">
	<g>
		<g>
			<g>
				<g>
					<path style="fill:#FEFEFE;" d="M156.893,404.56c-0.817,2.61-13.92,0.487-17.1-3.218c-0.512,0.947-0.299,4.305-1.179,4.305
						c-0.763-0.025-3.194-10.491,0.966-9.942c2.357,0.311,1.787,2.664,7.666,5.624C152.834,404.141,157.351,403.098,156.893,404.56z
						"/>
					<path style="fill:#EE8D6A;" d="M145.454,365.583c-2.33,9.35-3.436,15.456-4.472,19.453c-0.576,2.208-1.94,8.043-2.086,9.51
						c-0.51,5.029,1.432,6.154,4.015-1.094c0.092-0.259,5.117-13.607,8.12-26.414C154.351,352.877,148.835,352.046,145.454,365.583z
						"/>
				</g>
			</g>
			<g>
				<polygon style="fill:#0F1F4F;" points="177.902,209.499 205.189,225.98 146.718,387.861 138.799,385.239 				"/>
				
					<line style="fill:none;stroke:#2751CF;stroke-width:0.25;stroke-miterlimit:10;" x1="194.334" y1="219.424" x2="142.911" y2="386.601"/>
			</g>
		</g>
		<g>
			<g>
				<g>
					<path style="fill:#FEFEFE;" d="M175.843,404.56c-0.817,2.61-13.92,0.487-17.1-3.218c-0.512,0.947-0.299,4.305-1.179,4.305
						c-0.763-0.025-3.194-10.491,0.966-9.942c2.357,0.311,1.787,2.664,7.666,5.624C171.783,404.141,176.3,403.098,175.843,404.56z"
						/>
					<path style="fill:#EE8D6A;" d="M166.721,365.686c-3.076,9.132-6.025,19.029-7.38,22.93c-0.752,2.155-1.227,3.961-1.492,5.41
						c-0.913,4.972,1.234,6.407,2.687,2.921c0.106-0.254,6.623-18.169,11.626-29.362
						C178.097,354.306,171.182,352.465,166.721,365.686z"/>
				</g>
			</g>
			<g>
				<path style="fill:#162D73;" d="M167.614,199.553c0,0-10.381,0.745-14.064,19.894c-3.683,19.148,29.409,83.037,29.409,83.037
					l-25.088,84.899l7.072,1.772l40.244-91.211l-17.243-82.377L167.614,199.553z"/>
				<path style="fill:none;stroke:#2751CF;stroke-width:0.25;stroke-miterlimit:10;" d="M173.871,209.499
					c0,0-10.337,3.973-9.493,14.482c0.844,10.51,31.477,72.447,31.477,72.447l-34.549,91.814"/>
			</g>
		</g>
		<path style="fill:#5C2A29;" d="M223.789,156.435c2.51,9.008,10.468,15.822,26.029,13.414
			c11.687-1.809,12.531-24.372,30.192-44.478c7.308-8.32,10.313-26.11,1.242-32.493c-4.311-3.033-13.267-2.768-15.524-1.867
			c-1.652-4.421-3.874-4.576-6.472-4.247C244.28,88.663,216.486,130.222,223.789,156.435z"/>
		<g>
			<polygon style="fill:#EE8D6A;" points="264.937,194.178 269.754,217.653 277.479,217.653 272.25,192.998 			"/>
			<path style="fill:#EE8D6A;" d="M275.487,215.785c1.801-0.525,3.601-1.05,5.402-1.574c1.024-0.299,2.057-0.599,3.121-0.678
				c2.721-0.204,5.503,1.174,6.991,3.46c-0.591,0.929-1.888,1.188-2.949,0.896c-1.061-0.292-1.942-1.014-2.789-1.718
				c-2.092,1.071-4.664,1.766-6.986,2.128c-0.713,0.111-1.46,0.184-2.14-0.057C275.459,218.001,275.443,216.505,275.487,215.785z"/>
			<polygon style="fill:#DE5D5A;" points="262.119,144.547 276.258,201.59 265.64,204.933 253.615,154.164 			"/>
			
				<line style="fill:none;stroke:#FF807D;stroke-width:0.25;stroke-miterlimit:10;" x1="264.937" y1="201.023" x2="275.23" y2="197.443"/>
		</g>
		<g>
			<path style="fill:#ED6360;" d="M167.614,199.553c0,0,16.383-8.334,33.471-29.704c6.086-7.612,11.647-19.878,18.087-29.463
				c6.972-10.378,20.984-13.249,31.547-6.56l8.268,5.236c1.889,1.197,3.071,3.25,3.132,5.485c0.185,6.839-0.376,21.775-7.909,31.046
				c-10.018,12.33-35.065,17.405-49.021,50.387C205.189,225.98,179.227,221.411,167.614,199.553z"/>
			<path style="fill:none;stroke:#FF807D;stroke-width:0.25;stroke-miterlimit:10;" d="M171.994,196.929
				c0,0,12.355,19.753,35.438,24.174"/>
			<path style="fill:none;stroke:#FF807D;stroke-width:0.25;stroke-miterlimit:10;" d="M243.158,132.032
				c0,0-16.282-2.706-24.013,13.444c-8.554,17.87-21.857,39.179-45.273,54.076"/>
			<path style="fill:none;stroke:#FF807D;stroke-width:0.25;stroke-miterlimit:10;" d="M190.654,195.924
				c12.776,0.813,25.636,0.3,38.307-1.53"/>
			<path style="fill:none;stroke:#FF807D;stroke-width:0.25;stroke-miterlimit:10;" d="M201.085,207.175
				c7.373-0.51,14.625-2.707,21.042-6.374"/>
			<path style="fill:none;stroke:#FF807D;stroke-width:0.25;stroke-miterlimit:10;" d="M243.426,130.792
				c0,0-3.134,11.678,4.176,13.755c7.129,2.025,9.578-6.629,9.578-6.629"/>
		</g>
		<g>
			<polygon style="fill:#EE8D6A;" points="233.292,194.178 235.701,217.653 243.426,217.653 240.606,192.998 			"/>
			<path style="fill:#FFA382;" d="M244.798,220.161c-0.1-1.052-0.323-2.092-0.663-3.092c-0.205-0.604-0.509-1.252-1.1-1.491
				s-1.623,0.383-1.41,0.985c0.077-0.878-0.705-1.734-1.587-1.735c-0.881-0.001-1.987,0.867-1.912,1.745
				c-0.099-0.68-0.775-1.223-1.46-1.173c-0.685,0.05-1.791,0.719-1.791,1.406c-0.138-0.734-1.117-1.04-1.803-0.745
				c-0.686,0.296-1.116,0.976-1.457,1.64c-0.292,0.569-0.551,1.155-0.774,1.754C235.754,219.864,239.868,220.211,244.798,220.161z"
				/>
			<polygon style="fill:#ED6360;" points="225.25,149.262 232.832,203.852 243.264,202.055 239.018,138.568 			"/>
			<path style="fill:none;stroke:#FF807D;stroke-width:0.25;stroke-miterlimit:10;" d="M231.235,192.998
				c0,0-4.816-32.977-5.985-38.251c-1.17-5.274,2.277-15.776,11.277-18.143"/>
			
				<line style="fill:none;stroke:#FF807D;stroke-width:0.25;stroke-miterlimit:10;" x1="239.632" y1="147.747" x2="242.155" y2="185.469"/>
			
				<line style="fill:none;stroke:#FF807D;stroke-width:0.25;stroke-miterlimit:10;" x1="232.235" y1="199.553" x2="242.758" y2="198.231"/>
		</g>
		<g>
			<g>
				<path style="fill:#EE8D6A;" d="M276.258,105.179l-0.995,12.963c-0.716,9.327-10.34,15.227-18.977,11.633l0,0l-1.123,7.817
					c-0.424,2.954-3.314,4.89-6.208,4.158l0,0c-2.531-0.64-4.15-3.111-3.728-5.687l6.038-36.804L276.258,105.179z"/>
				<path style="fill:#EE8D6A;" d="M249.005,113.046c0,0-4.608-1.726-5.62,1.966c-1.012,3.692,4.713,3.563,4.713,3.563
					L249.005,113.046z"/>
			</g>
			<path style="fill:#5C2A29;" d="M275.538,116.499c-0.533-3.503-2.128-6.836-4.521-9.448c-7.787,8.03-24.006,8.056-28.823,2.734
				c0.056-3.302,5.567-10.524,8.415-12.894c5.419-4.509,10.711-4.433,15.7-3.507c2.701,0.501,5.447,1.354,7.474,3.209
				c2.876,2.632,3.786,6.784,3.973,10.678C277.914,110.578,277.188,113.627,275.538,116.499z"/>
			<g>
				<g>
					<g>
						<path style="fill:none;stroke:#2E2D33;stroke-width:0.5;stroke-miterlimit:10;" d="M268.109,115.49
							c-0.721,2.974-3.717,4.801-6.691,4.08c-2.974-0.721-4.801-3.717-4.08-6.691c0.721-2.975,3.717-4.801,6.691-4.08
							C267.004,109.519,268.83,112.515,268.109,115.49z"/>
					</g>
					<g>
						<path style="fill:none;stroke:#2E2D33;stroke-width:0.5;stroke-miterlimit:10;" d="M279.852,118.336
							c-0.721,2.974-3.717,4.801-6.691,4.08c-2.975-0.721-4.801-3.717-4.08-6.691c0.721-2.974,3.717-4.801,6.691-4.08
							C278.746,112.366,280.573,115.362,279.852,118.336z"/>
					</g>
					<path style="fill:none;stroke:#2E2D33;stroke-width:0.5;stroke-miterlimit:10;" d="M268.109,115.49
						c0,0,0.663-0.544,0.971,0.235"/>
				</g>
			</g>
		</g>
	</g>
	<g>
		<path style="fill:none;stroke:#BABABA;stroke-width:2;stroke-linecap:round;stroke-linejoin:round;stroke-miterlimit:10;" d="
			M277.479,405.716l25.574-92.555c1.662-6.015,7.373-9.993,13.591-9.468l69.259,5.855c5.484,0.464,10.077,4.338,11.46,9.664
			l24.582,86.504"/>
		<path style="fill:#FFFFFF;" d="M430.394,211.41c-0.755-6.043-11.897-10.387-11.897-10.387s-7.299,25.875-11.331,38.242
			c-4.032,12.366-13.031,50.706-34.559,51.556c-24.141,0.953-45.308-0.165-55.52,0.334c0,0-10.766-0.806-11.71,3.726
			c-0.944,4.532,1.243,7.479,12.613,7.705l66.381,5.611c16.279,2.644,21.095-9.539,21.095-9.539
			C416.231,266.743,431.15,217.453,430.394,211.41z"/>
	</g>
	<g>
		<g>
			<path style="fill:#445C66;" d="M361.26,199.138c3.999-3.036,6.58-7.638,8.05-12.439c1.47-4.8,1.925-9.844,2.371-14.844
				c0.28-3.131,0.522-7.12-0.804-9.971c-6.809,6.698-9.476,16.425-11.874,25.669c-0.658,2.537-1.316,5.075-1.974,7.612
				C358.007,196.563,359.802,198.253,361.26,199.138z"/>
			<path style="fill:#DB8262;" d="M291.307,195.932c-2.139,0.502-5.979,3.604-6.093,4.066c-0.333,1.352,0.602,3.204,1.988,3.077
				c-0.554,0.513-0.238,2.776,0.381,3.208c2.899,2.023,14.502-0.12,18.097-1.696c3.405,1.114,20.645,6.151,31.929,6.864
				c25.253,1.596,37.944-0.861,39.359-3.137c-4.498-7.002-5.925-10.98-13.954-13.167c-5.287-1.44-17.115,0.242-22.492,1.298
				c-11.744,2.305-23.837,1.745-35.792,1.175c-4.068-0.194-19.763-8.356-21.463-5.96
				C282.217,193.137,288.998,195.197,291.307,195.932z"/>
		</g>
		<path style="fill:#2E2D33;" d="M299.677,202.204L299.677,202.204c-0.374,0.739-1.276,1.035-2.016,0.662l-29.057-14.697
			c-0.739-0.374-1.035-1.276-0.661-2.016l0,0c0.374-0.739,1.276-1.035,2.016-0.662l29.057,14.697
			C299.755,200.562,300.051,201.464,299.677,202.204z"/>
		<path style="fill:#5C2A29;" d="M385.578,132.402c2.141-1.978,4.946-4.217,4.946-7.132c0-5.276-7.365-26.25-14.919-29.196
			c-4.153-1.62-6.698,0.637-7.415,1.992c-10.337-2.822-21.101,0.388-24.397,4.252c-6.03,7.068-8.223,20.686,9.772,20.431
			c6.333-0.09,12.66-1.332,18.479-3.832C374.149,124.654,380.069,129.758,385.578,132.402z"/>
		<g>
			<path style="fill:#EE8D6A;" d="M375.871,152.809l-5.528-15.686l-13.805,5.087l-2.795-13.828l-4.218,0.123l-1.063-11.609
				c17.289-1.188,19.323-9.425,19.323-9.425l5.357,8.102c0.75-3.475,2.086-9.028,6.43-6.234c4.344,2.794,1.226,10.742,1.226,10.742
				l11.219,20.121C392.017,140.201,387.974,149.408,375.871,152.809z"/>
		</g>
		<g>
			<path style="fill:#5C2A29;" d="M228.124,388.242l-3.638,17.474h-23.733c0,0-1.114-8.313,15.311-5.83l4.145-12.759
				L228.124,388.242z"/>
			<path style="fill:#0F1F4F;" d="M291.774,262.903l-36.793,2.325c-8.576,0.542-15.683,6.85-17.239,15.3l-21.985,107.927
				l13.809,3.648l31.22-95.629l37.392-6.529L291.774,262.903z"/>
			<path style="fill:none;stroke:#2751CF;stroke-width:0.25;stroke-miterlimit:10;" d="M221.862,390.068l27.622-98.158
				c1.538-5.695,6.226-9.991,12.033-11.029l33.113-5.914"/>
		</g>
		<g>
			<path style="fill:#5C2A29;" d="M304.34,386.15l5.163,19.566h-23.733c0,0-2.516-8.678,13.909-6.195l-3.893-11.417L304.34,386.15z"
				/>
			<path style="fill:#162D73;" d="M335.569,259.352l-55.955,4.537c-11.561,0.937-19.369,12.224-16.169,23.372l30.2,105.229
				l12.608-4.089l-19.406-94.49h89.859c10.91,0,20.214-7.903,21.978-18.669l2.605-15.89H335.569z"/>
			<path style="fill:none;stroke:#2751CF;stroke-width:0.25;stroke-miterlimit:10;" d="M300.462,390.279l-22.789-102.528
				c-1.107-4.979,2.682-9.703,7.783-9.703h83.338c4.676,0,8.651-3.418,9.351-8.041l1.614-10.655"/>
		</g>
		<g>
			<polygon style="fill:#B0B0B0;" points="368.996,154.164 369.196,163.378 374.629,158.094 			"/>
			<path style="fill:#516F7A;" d="M401.289,259.352c0,0,19.439-55.578,21.529-68.552c5.159-32.029-25.495-52.232-25.495-52.232
				s-29.648,8.161-34.559,42.035c-5.733,39.543-19.102,55.153-27.194,78.75c0,0,19.063,7.651,34.67,5.94
				C392.017,262.903,401.289,259.352,401.289,259.352z"/>
			<path style="fill:none;stroke:#7CAABA;stroke-width:0.25;stroke-miterlimit:10;" d="M392.017,140.201
				c0,0,16.656,14.087,20.875,23.177c4.219,9.09,6.467,26.389-1.619,44.532c-8.086,18.143-16.359,48.351-16.359,48.351"/>
			<path style="fill:none;stroke:#7CAABA;stroke-width:0.25;stroke-miterlimit:10;" d="M365.173,203.852
				c-1.547-1.066-1.572-3.592-0.274-4.949c1.298-1.357,3.495-1.576,5.233-0.863c-0.599-0.899,0.026-1.941,0.812-2.683
				c0.785-0.742,1.844-1.101,2.835-1.531c5.09-2.208,8.913-6.664,11.589-11.525c2.675-4.861,4.36-10.191,6.37-15.362
				c1.533-3.943,5.124-5.986,9.344-5.694"/>
			<path style="fill:none;stroke:#7CAABA;stroke-width:0.25;stroke-miterlimit:10;" d="M375.174,215.027
				c2.77,2.369,7.826,0.765,8.723-2.767c4.194-1.303,8.44-2.643,12.148-4.997c5.939-3.772,10.084-9.952,12.383-16.601
				c2.299-6.65,2.883-13.776,2.844-20.812"/>
			<path style="fill:none;stroke:#7CAABA;stroke-width:0.25;stroke-miterlimit:10;" d="M342.482,242.532
				c0,0,29.807-1.153,50.741-25.06"/>
			<path style="fill:none;stroke:#7CAABA;stroke-width:0.25;stroke-miterlimit:10;" d="M355.104,248.9
				c8.634-2.109,16.646-6.7,22.833-13.081"/>
			<path style="fill:none;stroke:#7CAABA;stroke-width:0.25;stroke-miterlimit:10;" d="M337.23,254.798
				c0,0,15.749,5.852,26.35,5.694c10.601-0.158,39.289-5.694,39.289-5.694"/>
			<polygon style="fill:#FFFFFF;" points="397.323,138.568 392.413,131.124 368.996,154.164 377.116,159.829 			"/>
		</g>
	</g>
	<g>
		
			<rect x="69.578" y="217.653" transform="matrix(-1 -1.224647e-16 1.224647e-16 -1 450.4996 447.9632)" style="fill:#FFFFFF;" width="311.343" height="12.658"/>
		<polygon style="fill:#0D3852;" points="374.591,405.716 380.921,405.716 353.918,230.311 347.588,230.311 		"/>
		<polygon style="fill:#0D3852;" points="75.909,405.716 69.578,405.716 96.581,230.311 102.912,230.311 		"/>
	</g>
	<g>
		<path style="fill:#4E505D;" d="M276.668,217.653h-26.685l-11.468-34.421c-0.663-1.99,0.413-4.141,2.403-4.803l0,0l11.803,35.428
			h20.149C274.968,213.855,276.668,215.555,276.668,217.653L276.668,217.653z"/>
		<polygon style="fill:#BABABA;" points="250.407,206.96 235.261,161.501 240.273,154.841 258.322,209.017 		"/>
	</g>
	<g>
		<path style="fill:#A6A6A6;" d="M100.427,201.209h63.505c2.241,0,4.161-1.603,4.561-3.807l6.712-36.944
			c0.517-2.846-1.669-5.465-4.561-5.465h-63.505c-2.241,0-4.161,1.603-4.561,3.807l-6.712,36.944
			C95.349,198.59,97.535,201.209,100.427,201.209z"/>
		<path style="fill:#BABABA;" d="M104.362,201.209h63.505c2.241,0,4.161-1.603,4.561-3.807l6.712-36.944
			c0.517-2.846-1.669-5.465-4.561-5.465h-63.505c-2.241,0-4.161,1.603-4.561,3.807l-6.712,36.944
			C99.284,198.59,101.47,201.209,104.362,201.209z"/>
		<path style="fill:#4E505D;" d="M132.462,185.999h10.406l-5.133,28.252c-0.359,1.976-2.08,3.413-4.089,3.413h-6.937
			L132.462,185.999z"/>
		<path style="fill:#6B6D80;" d="M114.216,214.38h10.348c1.359,0,2.524-0.972,2.767-2.31l4.736-26.071h3.469l-5.133,28.252
			c-0.359,1.976-2.08,3.413-4.088,3.413h-15.383C110.932,215.85,112.402,214.38,114.216,214.38z"/>
	</g>
	<path style="fill:#EE8D6A;" d="M291.699,197.345c-2.166,0.368-6.192,3.224-6.334,3.678c-0.416,1.329,0.401,3.235,1.793,3.194
		c-0.585,0.477-0.41,2.756,0.181,3.226c2.768,2.2,14.481,0.782,18.167-0.566c3.329,1.324,20.223,7.424,31.439,8.838
		c25.105,3.165,37.377,1.982,38.931-0.202c-4.053-7.268-4.683-11.807-12.561-14.49c-5.187-1.766-17.097-0.823-22.529-0.105
		c-11.865,1.57-23.9,0.258-35.795-1.055c-4.048-0.447-19.204-9.57-21.051-7.285C282.801,193.99,289.44,196.468,291.699,197.345z"/>
	<line style="fill:none;stroke:#4E505D;stroke-miterlimit:10;" x1="29.424" y1="405.716" x2="470.576" y2="405.716"/>
</g>
</svg>